<svg id="Layer_1" enable-background="new 0 0 511.999 511.999" height="512" viewBox="0 0 511.999 511.999" width="512" xmlns="http://www.w3.org/2000/svg"><g><g><path d="m419.043 174.5c-3.751 0-7.447-1.407-10.286-4.08l-60-56.5c-3.01-2.834-4.717-6.786-4.717-10.92v-49c0-8.284 6.716-15 15-15h60c8.284 0 15 6.716 15 15v105.5c0 5.985-3.558 11.397-9.053 13.771-1.913.826-3.937 1.229-5.944 1.229z" fill="#002659"/></g><g><path d="m436.979 506h-361.959c-8.284 0-15-6.716-15-15v-314.041c0-4.407 1.938-8.591 5.3-11.441l180.995-153.449c5.693-4.828 14.068-4.734 19.653.219l180.964 160.49c3.21 2.847 5.047 6.932 5.047 11.222v307c0 8.284-6.716 15-15 15z" fill="#fff4f4"/></g><path d="m446.932 172.779-180.964-160.491c-2.858-2.535-6.447-3.789-10.034-3.77v497.482h181.045c8.284 0 15-6.716 15-15v-306.999c0-4.291-1.837-8.376-5.047-11.222z" fill="#f6efea"/><g><path d="m465.998 511.999h-420c-8.284 0-15-6.716-15-15s6.716-15 15-15h420c8.284 0 15 6.716 15 15s-6.715 15-15 15z" fill="#b9dd39"/></g><g><path d="m493.994 240c-3.526 0-7.066-1.236-9.918-3.752l-228.077-201.244-228.075 201.244c-6.211 5.481-15.69 4.889-21.172-1.323-5.481-6.212-4.889-15.691 1.323-21.172l238-210c5.67-5.003 14.179-5.002 19.848 0l238 210c6.212 5.481 6.805 14.96 1.324 21.172-2.964 3.359-7.099 5.075-11.253 5.075z" fill="#453d81"/></g><g><path d="m255.999 424.371c-21.005 0-52.535-25.664-73.152-47.641-17.646-18.809-47.249-55.804-47.249-92.237 0-38.87 31.624-70.493 70.494-70.493 19.188 0 36.937 7.569 49.908 20.62 12.972-13.051 30.719-20.62 49.908-20.62 38.87 0 70.494 31.623 70.494 70.493 0 39.551-29.697 76.201-47.399 94.528-21.806 22.573-52.836 45.35-73.004 45.35z" fill="#ff415b"/></g><path d="m305.907 214c-19.188 0-36.936 7.569-49.908 20.62-.021-.021-.044-.041-.065-.062v189.811c.021 0 .043.002.065.002 20.168 0 51.198-22.777 73.002-45.35 17.702-18.327 47.399-54.977 47.399-94.528.001-38.87-31.623-70.493-70.493-70.493z" fill="#e50058"/><path d="m503.923 213.753-238-210c-2.852-2.517-6.423-3.765-9.989-3.749v35.059l.065-.057 228.076 201.244c2.852 2.517 6.392 3.753 9.918 3.752 4.154 0 8.289-1.716 11.254-5.076 5.481-6.213 4.888-15.692-1.324-21.173z" fill="#38336b"/><path d="m465.998 481.999h-210.064v30h210.064c8.284 0 15-6.716 15-15s-6.715-15-15-15z" fill="#90cc1c"/></g></svg>